<svg xmlns="http://www.w3.org/2000/svg" width="1090" height="385" viewBox="0 0 1090 385" version="1.1">
  <path d="M 965 148 L 931 148 L 925 168 L 923 171 L 923 174 L 921 177 L 921 181 L 919 183 L 918 190 L 916 192 L 908 215 L 908 218 L 906 221 L 906 224 L 904 227 L 904 230 L 900 238 L 897 235 L 896 232 L 897 230 L 890 209 L 888 208 L 887 205 L 888 203 L 886 202 L 885 199 L 886 197 L 884 196 L 885 194 L 883 193 L 883 189 L 877 171 L 874 167 L 875 165 L 873 164 L 874 162 L 872 161 L 871 153 L 869 152 L 870 150 L 868 148 L 834 148 L 834 153 L 836 154 L 841 171 L 843 172 L 845 181 L 852 198 L 854 199 L 857 211 L 860 216 L 863 226 L 865 227 L 865 231 L 869 241 L 872 244 L 872 248 L 874 249 L 874 252 L 876 254 L 876 258 L 878 259 L 884 274 L 881 283 L 879 285 L 879 288 L 877 289 L 876 292 L 873 295 L 862 300 L 846 299 L 845 301 L 846 306 L 845 325 L 849 327 L 874 326 L 876 324 L 880 324 L 888 320 L 901 307 L 906 296 L 909 293 L 910 287 L 912 286 L 917 273 L 917 269 L 920 265 L 931 237 L 933 228 L 936 224 L 938 219 L 938 215 L 940 214 L 940 210 L 943 206 L 943 202 L 948 193 L 950 184 L 953 180 L 953 176 L 955 175 L 957 166 L 959 164 L 960 158 L 962 157 L 962 153 L 964 152 Z" fill="#153d60" fill-rule="evenodd"></path>
  <path d="M 979 156 L 978 159 L 980 167 L 979 172 L 980 178 L 990 175 L 992 173 L 996 173 L 998 171 L 1002 170 L 1004 171 L 1007 169 L 1009 170 L 1014 168 L 1024 168 L 1028 170 L 1034 170 L 1035 172 L 1042 176 L 1045 180 L 1048 189 L 1048 194 L 1013 195 L 1002 197 L 999 199 L 993 200 L 983 206 L 975 215 L 970 228 L 971 247 L 976 258 L 982 264 L 985 265 L 986 267 L 1001 272 L 1019 272 L 1022 270 L 1024 271 L 1028 270 L 1038 265 L 1046 259 L 1047 257 L 1049 270 L 1077 270 L 1077 180 L 1075 178 L 1076 175 L 1074 174 L 1075 172 L 1070 161 L 1062 153 L 1055 149 L 1041 145 L 1039 146 L 1034 144 L 1027 145 L 1016 144 L 1015 145 L 1003 146 L 990 150 Z M 1048 214 L 1047 233 L 1045 237 L 1037 243 L 1022 249 L 1018 249 L 1014 247 L 1012 248 L 1001 238 L 1002 236 L 1001 231 L 1004 222 L 1006 220 L 1008 220 L 1010 217 L 1020 215 L 1023 213 Z" fill="#153d60" fill-rule="evenodd"></path>
  <path d="M 822 145 L 810 144 L 796 147 L 790 151 L 786 152 L 775 162 L 773 148 L 742 148 L 743 270 L 775 269 L 774 222 L 775 197 L 777 195 L 777 192 L 779 191 L 786 182 L 794 177 L 810 174 L 822 175 Z" fill="#153d60" fill-rule="evenodd"></path>
  <path d="M 625 155 L 623 158 L 620 159 L 616 163 L 615 166 L 613 167 L 613 169 L 609 173 L 607 177 L 607 181 L 605 182 L 602 192 L 603 196 L 601 200 L 602 225 L 606 238 L 613 250 L 622 259 L 628 262 L 629 264 L 635 267 L 653 272 L 661 271 L 682 272 L 684 270 L 688 271 L 690 269 L 692 270 L 700 268 L 703 266 L 706 266 L 707 264 L 712 263 L 712 259 L 710 254 L 711 243 L 710 239 L 706 239 L 692 245 L 682 246 L 680 248 L 661 247 L 656 245 L 654 246 L 640 236 L 639 233 L 636 231 L 637 229 L 634 223 L 635 217 L 644 216 L 715 216 L 719 217 L 718 206 L 719 192 L 717 188 L 718 186 L 715 176 L 713 175 L 713 172 L 710 169 L 707 162 L 700 155 L 694 151 L 691 151 L 690 149 L 682 146 L 680 147 L 678 145 L 672 144 L 647 145 L 638 148 L 636 150 L 633 150 L 628 153 L 627 155 Z M 633 190 L 639 178 L 645 173 L 652 169 L 665 167 L 668 169 L 671 168 L 672 170 L 674 169 L 676 170 L 677 172 L 680 173 L 684 177 L 687 185 L 689 186 L 688 188 L 690 193 L 688 195 L 634 194 Z" fill="#153d60" fill-rule="evenodd"></path>
  <path d="M 432 99 L 431 185 L 432 270 L 506 270 L 510 268 L 514 269 L 523 267 L 524 265 L 526 266 L 535 263 L 539 260 L 543 259 L 547 255 L 549 255 L 557 249 L 570 234 L 570 232 L 573 229 L 576 223 L 576 219 L 578 218 L 583 199 L 582 196 L 584 190 L 583 167 L 581 164 L 581 157 L 578 151 L 577 145 L 573 140 L 573 137 L 571 136 L 571 134 L 567 130 L 567 128 L 564 126 L 563 123 L 552 113 L 548 112 L 544 108 L 526 101 L 524 102 L 522 100 L 509 98 L 502 99 Z M 526 136 L 534 142 L 538 149 L 542 153 L 544 161 L 546 164 L 546 169 L 548 172 L 547 177 L 548 195 L 546 198 L 547 201 L 545 203 L 546 205 L 539 219 L 527 231 L 517 236 L 510 237 L 508 239 L 504 238 L 499 240 L 496 239 L 466 240 L 464 136 L 465 128 L 504 127 L 506 129 L 509 128 L 510 130 L 514 130 Z" fill="#153d60" fill-rule="evenodd"></path>
  <path d="M 168 13 L 165 15 L 162 14 L 141 19 L 139 21 L 129 23 L 112 32 L 107 33 L 102 36 L 101 38 L 97 39 L 96 41 L 85 47 L 77 55 L 74 56 L 56 74 L 55 77 L 51 80 L 32 109 L 32 111 L 29 115 L 28 121 L 26 122 L 26 126 L 24 127 L 23 134 L 21 135 L 22 137 L 20 138 L 18 145 L 19 147 L 17 149 L 16 154 L 17 156 L 15 158 L 16 161 L 14 165 L 15 168 L 13 170 L 14 178 L 12 182 L 12 201 L 14 206 L 13 212 L 15 216 L 14 219 L 16 222 L 15 225 L 18 238 L 21 243 L 20 245 L 22 251 L 24 252 L 23 254 L 37 283 L 50 302 L 53 304 L 54 307 L 61 313 L 62 316 L 65 319 L 70 322 L 80 332 L 83 333 L 84 335 L 86 335 L 88 338 L 93 340 L 97 344 L 111 352 L 121 355 L 122 357 L 144 365 L 146 364 L 148 366 L 156 368 L 158 367 L 161 369 L 164 368 L 166 370 L 174 371 L 180 370 L 191 372 L 198 372 L 207 370 L 213 371 L 216 369 L 219 370 L 223 368 L 226 369 L 229 367 L 231 368 L 233 366 L 235 367 L 243 365 L 251 361 L 253 362 L 261 359 L 264 356 L 267 356 L 278 351 L 288 345 L 292 341 L 299 338 L 301 335 L 308 331 L 313 325 L 317 323 L 328 312 L 329 309 L 338 300 L 355 273 L 358 266 L 358 263 L 361 260 L 361 256 L 363 255 L 362 253 L 364 252 L 364 247 L 367 242 L 370 231 L 369 229 L 371 226 L 370 224 L 372 222 L 371 218 L 373 213 L 372 210 L 374 204 L 374 180 L 372 173 L 373 169 L 372 161 L 363 128 L 361 127 L 361 123 L 347 96 L 342 90 L 341 87 L 338 85 L 338 83 L 336 82 L 335 79 L 331 76 L 330 73 L 312 55 L 309 54 L 306 50 L 285 36 L 283 36 L 282 34 L 264 25 L 255 23 L 253 21 L 236 16 L 234 17 L 227 14 L 212 12 Z M 265 54 L 268 57 L 267 60 L 258 68 L 257 71 L 254 73 L 244 89 L 244 91 L 242 92 L 239 98 L 238 103 L 235 106 L 235 110 L 232 114 L 232 118 L 230 119 L 229 127 L 227 128 L 228 130 L 226 131 L 225 135 L 226 137 L 224 139 L 225 141 L 223 143 L 221 152 L 222 156 L 220 158 L 221 161 L 219 164 L 216 181 L 217 185 L 215 187 L 215 192 L 209 214 L 210 216 L 208 218 L 207 221 L 208 223 L 206 224 L 202 239 L 199 242 L 192 259 L 190 260 L 186 268 L 183 271 L 180 277 L 178 278 L 177 281 L 174 283 L 167 293 L 154 306 L 151 307 L 135 320 L 119 329 L 115 326 L 125 317 L 125 315 L 131 310 L 132 307 L 140 297 L 141 293 L 143 292 L 147 282 L 152 275 L 156 261 L 158 260 L 157 258 L 158 255 L 160 254 L 161 246 L 163 245 L 165 237 L 164 235 L 166 233 L 167 229 L 166 227 L 168 225 L 170 215 L 169 213 L 171 210 L 172 205 L 171 202 L 173 199 L 172 196 L 174 194 L 177 179 L 176 176 L 180 166 L 180 160 L 182 158 L 187 142 L 189 139 L 189 136 L 192 133 L 196 123 L 199 120 L 202 113 L 205 110 L 210 101 L 214 98 L 219 90 L 228 82 L 228 80 L 233 77 L 244 66 L 249 64 L 259 56 Z" fill="#153d60" fill-rule="evenodd"></path>
</svg>